<svg width="330" height="330" viewBox="0 0 330 330" fill="none" xmlns="http://www.w3.org/2000/svg">
<path d="M85.3564 27.0672C99.7689 33.6364 109.019 41.9322 110.696 43.1904C109.931 39.4742 107.093 21.6684 105.46 10.5781C113.858 16.3866 133.359 29.847 139.756 34.2217C142.374 26.2039 151.433 0.0438927 151.433 0.0438927C151.433 0.0438927 167.787 26.3941 170.582 30.681C173.994 27.1257 193.553 5.48659 198.612 0C199.465 12.4509 200.627 30.2713 200.892 32.9488C201.892 31.6174 209.378 21.1855 221.923 11.5584C216.481 22.2097 213.893 36.9284 212.731 48.7502C200.392 45.3119 187.377 43.4684 173.935 43.4684C148.154 43.4684 123.947 50.2279 103.019 62.0497C99.2101 50.6522 93.2539 36.4456 85.3564 27.0672ZM235.614 175.366L235.585 157.033C235.585 157.033 227.364 154.4 218.555 147.611C200.907 150.274 179.509 167.933 179.509 167.933C179.509 167.933 186.744 181.569 194.627 196.274C208.525 198.176 228.982 180.75 235.585 175.351L235.614 175.366ZM253.38 208.622C253.38 208.622 251.968 201.043 245.924 193.947L232.158 194.284C232.158 194.284 213.584 210.173 202.245 210.539C202.245 210.539 208.495 222.097 211.628 228.125C217.878 226.779 228.849 221.863 233.261 216.771C233.261 216.771 236.188 226.15 235.629 237.196C241.835 233.597 250.395 223.911 253.395 208.607L253.38 208.622ZM259.042 148.357C252.101 154.18 246.203 157.399 246.203 157.399L246.262 175.82C251.248 181.335 256.145 185.9 259.822 194.225C266.778 181.774 265.454 163.427 259.042 148.357ZM260.557 131.941L261.645 123.573C262.013 118.964 260.822 111.327 254.336 103.397C246.292 94.4132 226.055 79.9579 216.408 76.4904C216.408 76.4904 215.613 85.7517 212.29 90.2141C193.068 76.4026 183.626 72.9497 183.626 72.9497C162.508 75.949 148.948 84.0545 141.58 90.419L148.007 95.8617C135.286 99.7535 127.02 110.639 127.02 110.639C127.109 110.829 138.389 112.424 138.389 112.424C138.389 112.424 137.242 125.606 153.831 133.873C168.023 140.939 188.465 132.176 207.701 139.842C195.039 125.314 186.332 118.818 186.332 118.818C186.332 118.818 181.303 117.779 177.758 117.793C173.346 117.823 166.773 118.701 159.537 115.891C156.095 114.56 152.066 112.19 148.919 110.215C148.919 110.215 157.801 101.143 170.758 99.139C170.758 99.139 182.45 102.416 191.73 109.234C197.892 103.265 204.319 103.455 204.319 103.455C204.319 103.455 197.951 109.381 199.877 116.55C209.142 124.772 219.187 136.521 219.187 136.521C229.423 130.932 251.659 132.219 256.233 137.487C250.439 130.025 242.1 123.792 235.644 118.452C234.864 115.657 227.82 105.884 226.629 104.991C226.629 104.991 233.335 107.054 239.306 112.38C241.041 109.951 244.247 107.464 248.63 106.367C253.145 110.127 253.924 115.891 253.807 116.857C251.762 119.256 249.792 120.251 249.792 120.251L260.616 131.912L261.704 123.543M271.411 138.745C287.926 169.104 291.941 205.476 280.47 241.717C279.779 240.942 271.043 231.227 267.425 227.247C265.131 262.683 254.645 290.204 224.055 313.452C224.055 313.452 221.143 302.318 219.437 295.354C168.993 332.136 125.623 315.311 113.431 309.268C122.873 266.195 115.564 241.468 109.24 222.609C95.8128 244.556 82.0621 261.601 68.3408 273.115C58.9579 251.315 58.2373 210.802 65.8259 186.866C63.3111 187.539 48.4868 192.192 40.2657 194.679C43.5747 172.703 58.1637 143.28 73.5763 128.62C70.885 128.152 62.9875 127.04 56.7225 126.001C60.5756 118.203 71.7527 103.718 88.886 90.1264C88.386 99.7096 91.9597 111.136 102.843 116.623C95.9452 104.582 95.1069 89.7167 102.298 82.0062C109.519 74.2518 121.638 76.9146 129.373 82.9426C127.947 78.7581 124.829 73.9153 120.226 70.7258C141.58 60.8353 167.493 55.1146 196.877 59.6209C201.407 63.5566 206.245 69.0871 208.922 72.5108C209.04 70.0528 208.687 65.3416 207.907 61.757C219.922 64.5954 232.467 69.1603 245.468 75.8466C222.32 52.8761 175.405 45.9703 136.256 57.119C127.079 59.738 118.373 63.1909 110.181 67.2729C101.548 67.3753 95.9893 72.6278 92.8127 77.2804C67.7672 93.8133 49.3986 115.569 40.5451 133.8C42.5158 134.224 48.4426 134.955 53.9282 135.892C42.7217 151.81 28.0886 181.877 29.0445 208.871C31.5888 208.11 45.266 203.94 51.9722 201.775C48.3838 225.594 49.428 265.609 64.9582 288.492C84.5181 274.71 95.857 260.225 105.284 247.16C107.711 258.923 110.078 279.831 101.74 314.477C108.505 319.671 157.537 345.289 212.996 311.814L217.628 330L223.629 326.123C257.38 304.308 270.337 274.841 274.867 250.847C276.425 252.559 282.558 259.245 284.764 261.469C293.235 238.484 310.163 183.208 271.352 138.774L271.411 138.745Z" fill="white"/>
</svg>
